<svg width="318" height="57" viewBox="0 0 318 57" fill="none" xmlns="http://www.w3.org/2000/svg">
<path d="M14.328 1.608C14.536 1.16 14.88 0.935999 15.36 0.935999C15.68 0.935999 15.968 1.048 16.224 1.272C16.48 1.48 16.608 1.736 16.608 2.04C16.608 2.152 16.568 2.304 16.488 2.496L9.72 17.328C9.608 17.584 9.432 17.784 9.192 17.928C8.952 18.072 8.696 18.144 8.424 18.144C8.152 18.144 7.888 18.072 7.632 17.928C7.392 17.784 7.216 17.584 7.104 17.328L0.36 2.496C0.28 2.304 0.24 2.152 0.24 2.04C0.24 1.72 0.368 1.456 0.624 1.248C0.896 1.04 1.192 0.935999 1.512 0.935999C2.008 0.935999 2.36 1.16 2.568 1.608L8.448 14.784L14.328 1.608ZM20.9509 18.12C20.5989 18.12 20.3029 18.024 20.0629 17.832C19.8389 17.64 19.7269 17.352 19.7269 16.968V7.224C19.7269 6.84 19.8389 6.552 20.0629 6.36C20.3029 6.152 20.5989 6.048 20.9509 6.048C21.3029 6.048 21.5909 6.152 21.8149 6.36C22.0389 6.552 22.1509 6.84 22.1509 7.224V16.968C22.1509 17.352 22.0389 17.64 21.8149 17.832C21.5909 18.024 21.3029 18.12 20.9509 18.12ZM20.9509 3.696C20.4869 3.696 20.1189 3.568 19.8469 3.312C19.5749 3.056 19.4389 2.72 19.4389 2.304C19.4389 1.888 19.5749 1.56 19.8469 1.32C20.1189 1.064 20.4869 0.935999 20.9509 0.935999C21.3989 0.935999 21.7589 1.064 22.0309 1.32C22.3189 1.56 22.4629 1.888 22.4629 2.304C22.4629 2.72 22.3269 3.056 22.0549 3.312C21.7829 3.568 21.4149 3.696 20.9509 3.696ZM29.6194 18.168C27.9874 18.168 26.6514 17.832 25.6114 17.16C25.3234 16.984 25.1154 16.8 24.9874 16.608C24.8754 16.416 24.8194 16.2 24.8194 15.96C24.8194 15.704 24.8914 15.488 25.0354 15.312C25.1794 15.136 25.3634 15.048 25.5874 15.048C25.7954 15.048 26.1234 15.176 26.5714 15.432C27.0514 15.688 27.5154 15.896 27.9634 16.056C28.4274 16.216 29.0034 16.296 29.6914 16.296C30.4594 16.296 31.0594 16.16 31.4914 15.888C31.9234 15.616 32.1394 15.232 32.1394 14.736C32.1394 14.416 32.0514 14.16 31.8754 13.968C31.7154 13.776 31.4274 13.608 31.0114 13.464C30.5954 13.304 29.9794 13.136 29.1634 12.96C27.7554 12.656 26.7394 12.248 26.1154 11.736C25.5074 11.208 25.2034 10.496 25.2034 9.6C25.2034 8.912 25.4034 8.296 25.8034 7.752C26.2034 7.192 26.7554 6.76 27.4594 6.456C28.1634 6.152 28.9634 6 29.8594 6C30.4994 6 31.1234 6.088 31.7314 6.264C32.3394 6.424 32.8754 6.664 33.3394 6.984C33.8674 7.336 34.1314 7.744 34.1314 8.208C34.1314 8.464 34.0514 8.68 33.8914 8.856C33.7474 9.032 33.5714 9.12 33.3634 9.12C33.2194 9.12 33.0754 9.088 32.9314 9.024C32.7874 8.96 32.5954 8.856 32.3554 8.712C31.9234 8.456 31.5154 8.256 31.1314 8.112C30.7634 7.968 30.2994 7.896 29.7394 7.896C29.0674 7.896 28.5234 8.04 28.1074 8.328C27.7074 8.616 27.5074 9.008 27.5074 9.504C27.5074 9.952 27.6914 10.304 28.0594 10.56C28.4434 10.8 29.1554 11.032 30.1954 11.256C31.2674 11.48 32.1074 11.736 32.7154 12.024C33.3234 12.312 33.7554 12.672 34.0114 13.104C34.2834 13.52 34.4194 14.056 34.4194 14.712C34.4194 15.752 33.9794 16.592 33.0994 17.232C32.2354 17.856 31.0754 18.168 29.6194 18.168ZM38.3415 18.12C37.9895 18.12 37.6935 18.024 37.4535 17.832C37.2295 17.64 37.1175 17.352 37.1175 16.968V7.224C37.1175 6.84 37.2295 6.552 37.4535 6.36C37.6935 6.152 37.9895 6.048 38.3415 6.048C38.6935 6.048 38.9815 6.152 39.2055 6.36C39.4295 6.552 39.5415 6.84 39.5415 7.224V16.968C39.5415 17.352 39.4295 17.64 39.2055 17.832C38.9815 18.024 38.6935 18.12 38.3415 18.12ZM38.3415 3.696C37.8775 3.696 37.5095 3.568 37.2375 3.312C36.9655 3.056 36.8295 2.72 36.8295 2.304C36.8295 1.888 36.9655 1.56 37.2375 1.32C37.5095 1.064 37.8775 0.935999 38.3415 0.935999C38.7895 0.935999 39.1495 1.064 39.4215 1.32C39.7095 1.56 39.8535 1.888 39.8535 2.304C39.8535 2.72 39.7175 3.056 39.4455 3.312C39.1735 3.568 38.8055 3.696 38.3415 3.696ZM48.9941 16.272C49.3461 16.304 49.5941 16.4 49.7381 16.56C49.8981 16.704 49.9781 16.912 49.9781 17.184C49.9781 17.504 49.8501 17.752 49.5941 17.928C49.3541 18.088 48.9941 18.152 48.5141 18.12L47.8661 18.072C46.5701 17.976 45.6021 17.584 44.9621 16.896C44.3221 16.192 44.0021 15.16 44.0021 13.8V8.16H42.5621C41.8581 8.16 41.5061 7.848 41.5061 7.224C41.5061 6.936 41.5941 6.712 41.7701 6.552C41.9621 6.376 42.2261 6.288 42.5621 6.288H44.0021V3.816C44.0021 3.448 44.1061 3.16 44.3141 2.952C44.5381 2.744 44.8341 2.64 45.2021 2.64C45.5701 2.64 45.8661 2.744 46.0901 2.952C46.3141 3.16 46.4261 3.448 46.4261 3.816V6.288H48.8021C49.1381 6.288 49.3941 6.376 49.5701 6.552C49.7621 6.712 49.8581 6.936 49.8581 7.224C49.8581 7.528 49.7621 7.76 49.5701 7.92C49.3941 8.08 49.1381 8.16 48.8021 8.16H46.4261V13.968C46.4261 14.72 46.5781 15.272 46.8821 15.624C47.2021 15.976 47.6821 16.176 48.3221 16.224L48.9941 16.272ZM60.8871 15.048C61.1111 15.048 61.2951 15.136 61.4391 15.312C61.5831 15.488 61.6551 15.712 61.6551 15.984C61.6551 16.448 61.3671 16.84 60.7911 17.16C60.2311 17.48 59.6151 17.728 58.9431 17.904C58.2871 18.08 57.6551 18.168 57.0471 18.168C55.1911 18.168 53.7271 17.632 52.6551 16.56C51.5831 15.472 51.0471 13.992 51.0471 12.12C51.0471 10.92 51.2791 9.856 51.7431 8.928C52.2231 8 52.8871 7.28 53.7351 6.768C54.5991 6.256 55.5751 6 56.6631 6C58.2311 6 59.4711 6.504 60.3831 7.512C61.2951 8.52 61.7511 9.88 61.7511 11.592C61.7511 12.232 61.4631 12.552 60.8871 12.552H53.4711C53.6311 15.032 54.8231 16.272 57.0471 16.272C57.6391 16.272 58.1511 16.192 58.5831 16.032C59.0151 15.872 59.4711 15.664 59.9511 15.408C59.9991 15.376 60.1271 15.312 60.3351 15.216C60.5591 15.104 60.7431 15.048 60.8871 15.048ZM56.7111 7.776C55.7831 7.776 55.0391 8.072 54.4791 8.664C53.9191 9.256 53.5831 10.088 53.4711 11.16H59.6631C59.6151 10.072 59.3351 9.24 58.8231 8.664C58.3271 8.072 57.6231 7.776 56.7111 7.776ZM75.8383 18.168C74.6863 18.168 73.6703 17.92 72.7903 17.424C71.9263 16.928 71.2543 16.224 70.7743 15.312C70.3103 14.384 70.0783 13.312 70.0783 12.096C70.0783 10.864 70.3103 9.792 70.7743 8.88C71.2543 7.952 71.9263 7.24 72.7903 6.744C73.6703 6.248 74.6863 6 75.8383 6C76.9903 6 77.9983 6.248 78.8623 6.744C79.7423 7.24 80.4143 7.952 80.8783 8.88C81.3583 9.792 81.5983 10.864 81.5983 12.096C81.5983 13.312 81.3583 14.384 80.8783 15.312C80.4143 16.224 79.7423 16.928 78.8623 17.424C77.9983 17.92 76.9903 18.168 75.8383 18.168ZM75.8383 16.248C76.9103 16.248 77.7263 15.896 78.2863 15.192C78.8623 14.488 79.1503 13.456 79.1503 12.096C79.1503 10.752 78.8623 9.728 78.2863 9.024C77.7103 8.304 76.8943 7.944 75.8383 7.944C74.7823 7.944 73.9663 8.304 73.3903 9.024C72.8143 9.728 72.5263 10.752 72.5263 12.096C72.5263 13.456 72.8063 14.488 73.3663 15.192C73.9423 15.896 74.7663 16.248 75.8383 16.248ZM90.4412 6.048C91.2092 6 91.5932 6.328 91.5932 7.032C91.5932 7.384 91.5052 7.648 91.3292 7.824C91.1532 8 90.8492 8.104 90.4172 8.136L89.6972 8.208C88.6892 8.304 87.9372 8.656 87.4412 9.264C86.9612 9.872 86.7212 10.608 86.7212 11.472V16.968C86.7212 17.352 86.6092 17.64 86.3852 17.832C86.1612 18.024 85.8732 18.12 85.5212 18.12C85.1692 18.12 84.8732 18.024 84.6332 17.832C84.4092 17.64 84.2972 17.352 84.2972 16.968V7.2C84.2972 6.832 84.4092 6.552 84.6332 6.36C84.8732 6.152 85.1692 6.048 85.5212 6.048C85.8412 6.048 86.1052 6.152 86.3132 6.36C86.5372 6.552 86.6492 6.824 86.6492 7.176V8.328C86.9692 7.624 87.4332 7.088 88.0412 6.72C88.6492 6.352 89.3372 6.136 90.1052 6.072L90.4412 6.048ZM99.6141 2.928C98.8141 2.992 98.2221 3.248 97.8381 3.696C97.4541 4.128 97.2621 4.768 97.2621 5.616V6.288H99.6381C99.9741 6.288 100.23 6.376 100.406 6.552C100.598 6.712 100.694 6.936 100.694 7.224C100.694 7.512 100.598 7.744 100.406 7.92C100.23 8.08 99.9741 8.16 99.6381 8.16H97.2621V16.944C97.2621 17.328 97.1421 17.624 96.9021 17.832C96.6781 18.024 96.3901 18.12 96.0381 18.12C95.6861 18.12 95.3981 18.024 95.1741 17.832C94.9501 17.624 94.8381 17.328 94.8381 16.944V8.16H93.3981C93.0621 8.16 92.7981 8.08 92.6061 7.92C92.4301 7.744 92.3421 7.512 92.3421 7.224C92.3421 6.936 92.4301 6.712 92.6061 6.552C92.7981 6.376 93.0621 6.288 93.3981 6.288H94.8381V5.976C94.8381 4.504 95.2141 3.352 95.9661 2.52C96.7181 1.672 97.7821 1.2 99.1581 1.104L99.7821 1.056C100.294 1.024 100.662 1.08 100.886 1.224C101.126 1.368 101.246 1.6 101.246 1.92C101.246 2.48 100.91 2.8 100.238 2.88L99.6141 2.928ZM107.1 6C108.652 6 109.804 6.392 110.556 7.176C111.324 7.96 111.708 9.152 111.708 10.752V16.968C111.708 17.336 111.604 17.624 111.396 17.832C111.188 18.024 110.9 18.12 110.532 18.12C110.18 18.12 109.9 18.016 109.692 17.808C109.484 17.6 109.38 17.32 109.38 16.968V16.08C109.076 16.752 108.62 17.272 108.012 17.64C107.42 17.992 106.724 18.168 105.924 18.168C105.156 18.168 104.452 18.016 103.812 17.712C103.188 17.392 102.692 16.96 102.324 16.416C101.956 15.872 101.772 15.256 101.772 14.568C101.756 13.704 101.972 13.032 102.42 12.552C102.868 12.056 103.596 11.704 104.604 11.496C105.612 11.272 107.012 11.16 108.804 11.16H109.356V10.464C109.356 9.568 109.172 8.92 108.804 8.52C108.436 8.12 107.844 7.92 107.028 7.92C106.468 7.92 105.94 7.992 105.444 8.136C104.948 8.28 104.404 8.488 103.812 8.76C103.38 9 103.076 9.12 102.9 9.12C102.66 9.12 102.46 9.032 102.3 8.856C102.156 8.68 102.084 8.456 102.084 8.184C102.084 7.944 102.148 7.736 102.276 7.56C102.42 7.368 102.644 7.184 102.948 7.008C103.508 6.704 104.164 6.464 104.916 6.288C105.668 6.096 106.396 6 107.1 6ZM106.356 16.368C107.236 16.368 107.956 16.072 108.516 15.48C109.076 14.872 109.356 14.096 109.356 13.152V12.528H108.924C107.676 12.528 106.716 12.584 106.044 12.696C105.372 12.808 104.892 13 104.604 13.272C104.316 13.528 104.172 13.904 104.172 14.4C104.172 14.976 104.38 15.448 104.796 15.816C105.212 16.184 105.732 16.368 106.356 16.368ZM121.336 6C124.136 6 125.536 7.576 125.536 10.728V16.968C125.536 17.336 125.424 17.624 125.2 17.832C124.992 18.024 124.696 18.12 124.312 18.12C123.944 18.12 123.648 18.016 123.424 17.808C123.216 17.6 123.112 17.32 123.112 16.968V10.848C123.112 9.856 122.912 9.128 122.512 8.664C122.128 8.2 121.52 7.968 120.688 7.968C119.712 7.968 118.928 8.272 118.336 8.88C117.744 9.488 117.448 10.304 117.448 11.328V16.968C117.448 17.32 117.336 17.6 117.112 17.808C116.904 18.016 116.616 18.12 116.248 18.12C115.88 18.12 115.584 18.016 115.36 17.808C115.136 17.6 115.024 17.32 115.024 16.968V7.2C115.024 6.864 115.136 6.592 115.36 6.384C115.6 6.16 115.896 6.048 116.248 6.048C116.6 6.048 116.88 6.152 117.088 6.36C117.296 6.568 117.4 6.84 117.4 7.176V8.16C117.784 7.456 118.32 6.92 119.008 6.552C119.696 6.184 120.472 6 121.336 6ZM133.772 6C135.324 6 136.476 6.392 137.228 7.176C137.996 7.96 138.38 9.152 138.38 10.752V16.968C138.38 17.336 138.276 17.624 138.068 17.832C137.86 18.024 137.572 18.12 137.204 18.12C136.852 18.12 136.572 18.016 136.364 17.808C136.156 17.6 136.052 17.32 136.052 16.968V16.08C135.748 16.752 135.292 17.272 134.684 17.64C134.092 17.992 133.396 18.168 132.596 18.168C131.828 18.168 131.124 18.016 130.484 17.712C129.86 17.392 129.364 16.96 128.996 16.416C128.628 15.872 128.444 15.256 128.444 14.568C128.428 13.704 128.644 13.032 129.092 12.552C129.54 12.056 130.268 11.704 131.276 11.496C132.284 11.272 133.684 11.16 135.476 11.16H136.028V10.464C136.028 9.568 135.844 8.92 135.476 8.52C135.108 8.12 134.516 7.92 133.7 7.92C133.14 7.92 132.612 7.992 132.116 8.136C131.62 8.28 131.076 8.488 130.484 8.76C130.052 9 129.748 9.12 129.572 9.12C129.332 9.12 129.132 9.032 128.972 8.856C128.828 8.68 128.756 8.456 128.756 8.184C128.756 7.944 128.82 7.736 128.948 7.56C129.092 7.368 129.316 7.184 129.62 7.008C130.18 6.704 130.836 6.464 131.588 6.288C132.34 6.096 133.068 6 133.772 6ZM133.028 16.368C133.908 16.368 134.628 16.072 135.188 15.48C135.748 14.872 136.028 14.096 136.028 13.152V12.528H135.596C134.348 12.528 133.388 12.584 132.716 12.696C132.044 12.808 131.564 13 131.276 13.272C130.988 13.528 130.844 13.904 130.844 14.4C130.844 14.976 131.052 15.448 131.468 15.816C131.884 16.184 132.404 16.368 133.028 16.368ZM147.432 16.272C147.784 16.304 148.032 16.4 148.176 16.56C148.336 16.704 148.416 16.912 148.416 17.184C148.416 17.504 148.288 17.752 148.032 17.928C147.792 18.088 147.432 18.152 146.952 18.12L146.304 18.072C145.008 17.976 144.04 17.584 143.4 16.896C142.76 16.192 142.44 15.16 142.44 13.8V8.16H141C140.296 8.16 139.944 7.848 139.944 7.224C139.944 6.936 140.032 6.712 140.208 6.552C140.4 6.376 140.664 6.288 141 6.288H142.44V3.816C142.44 3.448 142.544 3.16 142.752 2.952C142.976 2.744 143.272 2.64 143.64 2.64C144.008 2.64 144.304 2.744 144.528 2.952C144.752 3.16 144.864 3.448 144.864 3.816V6.288H147.24C147.576 6.288 147.832 6.376 148.008 6.552C148.2 6.712 148.296 6.936 148.296 7.224C148.296 7.528 148.2 7.76 148.008 7.92C147.832 8.08 147.576 8.16 147.24 8.16H144.864V13.968C144.864 14.72 145.016 15.272 145.32 15.624C145.64 15.976 146.12 16.176 146.76 16.224L147.432 16.272ZM155.245 18.168C154.093 18.168 153.077 17.92 152.197 17.424C151.333 16.928 150.661 16.224 150.181 15.312C149.717 14.384 149.485 13.312 149.485 12.096C149.485 10.864 149.717 9.792 150.181 8.88C150.661 7.952 151.333 7.24 152.197 6.744C153.077 6.248 154.093 6 155.245 6C156.397 6 157.405 6.248 158.269 6.744C159.149 7.24 159.821 7.952 160.285 8.88C160.765 9.792 161.005 10.864 161.005 12.096C161.005 13.312 160.765 14.384 160.285 15.312C159.821 16.224 159.149 16.928 158.269 17.424C157.405 17.92 156.397 18.168 155.245 18.168ZM155.245 16.248C156.317 16.248 157.133 15.896 157.693 15.192C158.269 14.488 158.557 13.456 158.557 12.096C158.557 10.752 158.269 9.728 157.693 9.024C157.117 8.304 156.301 7.944 155.245 7.944C154.189 7.944 153.373 8.304 152.797 9.024C152.221 9.728 151.933 10.752 151.933 12.096C151.933 13.456 152.213 14.488 152.773 15.192C153.349 15.896 154.173 16.248 155.245 16.248ZM167.783 18.168C166.151 18.168 164.815 17.832 163.775 17.16C163.487 16.984 163.279 16.8 163.151 16.608C163.039 16.416 162.983 16.2 162.983 15.96C162.983 15.704 163.055 15.488 163.199 15.312C163.343 15.136 163.527 15.048 163.751 15.048C163.959 15.048 164.287 15.176 164.735 15.432C165.215 15.688 165.679 15.896 166.127 16.056C166.591 16.216 167.167 16.296 167.855 16.296C168.623 16.296 169.223 16.16 169.655 15.888C170.087 15.616 170.303 15.232 170.303 14.736C170.303 14.416 170.215 14.16 170.039 13.968C169.879 13.776 169.591 13.608 169.175 13.464C168.759 13.304 168.143 13.136 167.327 12.96C165.919 12.656 164.903 12.248 164.279 11.736C163.671 11.208 163.367 10.496 163.367 9.6C163.367 8.912 163.567 8.296 163.967 7.752C164.367 7.192 164.919 6.76 165.623 6.456C166.327 6.152 167.127 6 168.023 6C168.663 6 169.287 6.088 169.895 6.264C170.503 6.424 171.039 6.664 171.503 6.984C172.031 7.336 172.295 7.744 172.295 8.208C172.295 8.464 172.215 8.68 172.055 8.856C171.911 9.032 171.735 9.12 171.527 9.12C171.383 9.12 171.239 9.088 171.095 9.024C170.951 8.96 170.759 8.856 170.519 8.712C170.087 8.456 169.679 8.256 169.295 8.112C168.927 7.968 168.463 7.896 167.903 7.896C167.231 7.896 166.687 8.04 166.271 8.328C165.871 8.616 165.671 9.008 165.671 9.504C165.671 9.952 165.855 10.304 166.223 10.56C166.607 10.8 167.319 11.032 168.359 11.256C169.431 11.48 170.271 11.736 170.879 12.024C171.487 12.312 171.919 12.672 172.175 13.104C172.447 13.52 172.583 14.056 172.583 14.712C172.583 15.752 172.143 16.592 171.263 17.232C170.399 17.856 169.239 18.168 167.783 18.168ZM190.778 15.048C191.002 15.048 191.186 15.136 191.33 15.312C191.474 15.488 191.546 15.712 191.546 15.984C191.546 16.448 191.258 16.84 190.682 17.16C190.122 17.48 189.506 17.728 188.834 17.904C188.178 18.08 187.546 18.168 186.938 18.168C185.082 18.168 183.618 17.632 182.546 16.56C181.474 15.472 180.938 13.992 180.938 12.12C180.938 10.92 181.17 9.856 181.634 8.928C182.114 8 182.778 7.28 183.626 6.768C184.49 6.256 185.466 6 186.554 6C188.122 6 189.362 6.504 190.274 7.512C191.186 8.52 191.642 9.88 191.642 11.592C191.642 12.232 191.354 12.552 190.778 12.552H183.362C183.522 15.032 184.714 16.272 186.938 16.272C187.53 16.272 188.042 16.192 188.474 16.032C188.906 15.872 189.362 15.664 189.842 15.408C189.89 15.376 190.018 15.312 190.226 15.216C190.45 15.104 190.634 15.048 190.778 15.048ZM186.602 7.776C185.674 7.776 184.93 8.072 184.37 8.664C183.81 9.256 183.474 10.088 183.362 11.16H189.554C189.506 10.072 189.226 9.24 188.714 8.664C188.218 8.072 187.514 7.776 186.602 7.776ZM214.081 6C216.705 6 218.017 7.576 218.017 10.728V16.968C218.017 17.336 217.905 17.624 217.681 17.832C217.457 18.024 217.161 18.12 216.793 18.12C216.441 18.12 216.153 18.024 215.929 17.832C215.705 17.624 215.593 17.336 215.593 16.968V10.752C215.593 9.776 215.417 9.072 215.065 8.64C214.713 8.192 214.161 7.968 213.409 7.968C212.529 7.968 211.833 8.272 211.321 8.88C210.809 9.472 210.553 10.288 210.553 11.328V16.968C210.553 17.336 210.441 17.624 210.217 17.832C209.993 18.024 209.697 18.12 209.329 18.12C208.977 18.12 208.689 18.024 208.465 17.832C208.241 17.624 208.129 17.336 208.129 16.968V10.752C208.129 9.776 207.953 9.072 207.601 8.64C207.249 8.192 206.697 7.968 205.945 7.968C205.065 7.968 204.361 8.272 203.833 8.88C203.321 9.472 203.065 10.288 203.065 11.328V16.968C203.065 17.336 202.953 17.624 202.729 17.832C202.505 18.024 202.217 18.12 201.865 18.12C201.513 18.12 201.217 18.024 200.977 17.832C200.753 17.624 200.641 17.336 200.641 16.968V7.2C200.641 6.848 200.761 6.568 201.001 6.36C201.241 6.152 201.529 6.048 201.865 6.048C202.201 6.048 202.473 6.152 202.681 6.36C202.905 6.552 203.017 6.824 203.017 7.176V8.064C203.369 7.392 203.857 6.88 204.481 6.528C205.105 6.176 205.825 6 206.641 6C207.537 6 208.273 6.184 208.849 6.552C209.441 6.92 209.881 7.488 210.169 8.256C210.521 7.568 211.041 7.024 211.729 6.624C212.417 6.208 213.201 6 214.081 6ZM230.408 6.048C230.776 6.048 231.064 6.152 231.272 6.36C231.496 6.568 231.608 6.856 231.608 7.224V16.992C231.608 17.328 231.496 17.6 231.272 17.808C231.048 18.016 230.752 18.12 230.384 18.12C230.048 18.12 229.776 18.024 229.568 17.832C229.36 17.624 229.256 17.352 229.256 17.016V16.104C228.888 16.776 228.376 17.288 227.72 17.64C227.08 17.992 226.36 18.168 225.56 18.168C222.712 18.168 221.288 16.6 221.288 13.464V7.224C221.288 6.856 221.392 6.568 221.6 6.36C221.824 6.152 222.128 6.048 222.512 6.048C222.88 6.048 223.168 6.152 223.376 6.36C223.6 6.568 223.712 6.856 223.712 7.224V13.44C223.712 14.384 223.904 15.08 224.288 15.528C224.672 15.976 225.264 16.2 226.064 16.2C227.008 16.2 227.76 15.896 228.32 15.288C228.896 14.68 229.184 13.872 229.184 12.864V7.224C229.184 6.872 229.296 6.592 229.52 6.384C229.744 6.16 230.04 6.048 230.408 6.048ZM244.576 0.959999C244.944 0.959999 245.24 1.064 245.464 1.272C245.688 1.48 245.8 1.76 245.8 2.112V16.944C245.8 17.312 245.688 17.6 245.464 17.808C245.256 18.016 244.968 18.12 244.6 18.12C244.232 18.12 243.936 18.016 243.712 17.808C243.504 17.6 243.4 17.312 243.4 16.944V15.984C243.048 16.688 242.536 17.232 241.864 17.616C241.192 17.984 240.416 18.168 239.536 18.168C238.528 18.168 237.624 17.912 236.824 17.4C236.04 16.888 235.424 16.168 234.976 15.24C234.544 14.312 234.328 13.248 234.328 12.048C234.328 10.832 234.544 9.768 234.976 8.856C235.424 7.944 236.04 7.24 236.824 6.744C237.608 6.248 238.512 6 239.536 6C240.416 6 241.184 6.192 241.84 6.576C242.512 6.944 243.024 7.472 243.376 8.16V2.064C243.376 1.728 243.48 1.464 243.688 1.272C243.912 1.064 244.208 0.959999 244.576 0.959999ZM240.112 16.248C241.152 16.248 241.96 15.888 242.536 15.168C243.112 14.448 243.4 13.424 243.4 12.096C243.4 10.768 243.112 9.744 242.536 9.024C241.976 8.304 241.168 7.944 240.112 7.944C239.056 7.944 238.232 8.304 237.64 9.024C237.064 9.728 236.776 10.736 236.776 12.048C236.776 13.36 237.072 14.392 237.664 15.144C238.256 15.88 239.072 16.248 240.112 16.248ZM258.348 15.048C258.572 15.048 258.756 15.136 258.9 15.312C259.044 15.488 259.116 15.712 259.116 15.984C259.116 16.448 258.828 16.84 258.252 17.16C257.692 17.48 257.076 17.728 256.404 17.904C255.748 18.08 255.116 18.168 254.508 18.168C252.652 18.168 251.188 17.632 250.116 16.56C249.044 15.472 248.508 13.992 248.508 12.12C248.508 10.92 248.74 9.856 249.204 8.928C249.684 8 250.348 7.28 251.196 6.768C252.06 6.256 253.036 6 254.124 6C255.692 6 256.932 6.504 257.844 7.512C258.756 8.52 259.212 9.88 259.212 11.592C259.212 12.232 258.924 12.552 258.348 12.552H250.932C251.092 15.032 252.284 16.272 254.508 16.272C255.1 16.272 255.612 16.192 256.044 16.032C256.476 15.872 256.932 15.664 257.412 15.408C257.46 15.376 257.588 15.312 257.796 15.216C258.02 15.104 258.204 15.048 258.348 15.048ZM254.172 7.776C253.244 7.776 252.5 8.072 251.94 8.664C251.38 9.256 251.044 10.088 250.932 11.16H257.124C257.076 10.072 256.796 9.24 256.284 8.664C255.788 8.072 255.084 7.776 254.172 7.776ZM273.299 18.168C272.147 18.168 271.131 17.92 270.251 17.424C269.387 16.928 268.715 16.224 268.235 15.312C267.771 14.384 267.539 13.312 267.539 12.096C267.539 10.864 267.771 9.792 268.235 8.88C268.715 7.952 269.387 7.24 270.251 6.744C271.131 6.248 272.147 6 273.299 6C274.451 6 275.459 6.248 276.323 6.744C277.203 7.24 277.875 7.952 278.339 8.88C278.819 9.792 279.059 10.864 279.059 12.096C279.059 13.312 278.819 14.384 278.339 15.312C277.875 16.224 277.203 16.928 276.323 17.424C275.459 17.92 274.451 18.168 273.299 18.168ZM273.299 16.248C274.371 16.248 275.187 15.896 275.747 15.192C276.323 14.488 276.611 13.456 276.611 12.096C276.611 10.752 276.323 9.728 275.747 9.024C275.171 8.304 274.355 7.944 273.299 7.944C272.243 7.944 271.427 8.304 270.851 9.024C270.275 9.728 269.987 10.752 269.987 12.096C269.987 13.456 270.267 14.488 270.827 15.192C271.403 15.896 272.227 16.248 273.299 16.248ZM297.662 0.959999C298.03 0.959999 298.326 1.064 298.55 1.272C298.774 1.48 298.886 1.76 298.886 2.112V16.944C298.886 17.312 298.774 17.6 298.55 17.808C298.342 18.016 298.054 18.12 297.686 18.12C297.318 18.12 297.022 18.016 296.798 17.808C296.59 17.6 296.486 17.312 296.486 16.944V15.984C296.134 16.688 295.622 17.232 294.95 17.616C294.278 17.984 293.502 18.168 292.622 18.168C291.614 18.168 290.71 17.912 289.91 17.4C289.126 16.888 288.51 16.168 288.062 15.24C287.63 14.312 287.414 13.248 287.414 12.048C287.414 10.832 287.63 9.768 288.062 8.856C288.51 7.944 289.126 7.24 289.91 6.744C290.694 6.248 291.598 6 292.622 6C293.502 6 294.27 6.192 294.926 6.576C295.598 6.944 296.11 7.472 296.462 8.16V2.064C296.462 1.728 296.566 1.464 296.774 1.272C296.998 1.064 297.294 0.959999 297.662 0.959999ZM293.198 16.248C294.238 16.248 295.046 15.888 295.622 15.168C296.198 14.448 296.486 13.424 296.486 12.096C296.486 10.768 296.198 9.744 295.622 9.024C295.062 8.304 294.254 7.944 293.198 7.944C292.142 7.944 291.318 8.304 290.726 9.024C290.15 9.728 289.862 10.736 289.862 12.048C289.862 13.36 290.158 14.392 290.75 15.144C291.342 15.88 292.158 16.248 293.198 16.248ZM303.49 18.12C303.138 18.12 302.842 18.024 302.602 17.832C302.378 17.64 302.266 17.352 302.266 16.968V7.224C302.266 6.84 302.378 6.552 302.602 6.36C302.842 6.152 303.138 6.048 303.49 6.048C303.842 6.048 304.13 6.152 304.354 6.36C304.578 6.552 304.69 6.84 304.69 7.224V16.968C304.69 17.352 304.578 17.64 304.354 17.832C304.13 18.024 303.842 18.12 303.49 18.12ZM303.49 3.696C303.026 3.696 302.658 3.568 302.386 3.312C302.114 3.056 301.978 2.72 301.978 2.304C301.978 1.888 302.114 1.56 302.386 1.32C302.658 1.064 303.026 0.935999 303.49 0.935999C303.938 0.935999 304.298 1.064 304.57 1.32C304.858 1.56 305.002 1.888 305.002 2.304C305.002 2.72 304.866 3.056 304.594 3.312C304.322 3.568 303.954 3.696 303.49 3.696ZM312.998 6C314.55 6 315.702 6.392 316.454 7.176C317.222 7.96 317.606 9.152 317.606 10.752V16.968C317.606 17.336 317.502 17.624 317.294 17.832C317.086 18.024 316.798 18.12 316.43 18.12C316.078 18.12 315.798 18.016 315.59 17.808C315.382 17.6 315.278 17.32 315.278 16.968V16.08C314.974 16.752 314.518 17.272 313.91 17.64C313.318 17.992 312.622 18.168 311.822 18.168C311.054 18.168 310.35 18.016 309.71 17.712C309.086 17.392 308.59 16.96 308.222 16.416C307.854 15.872 307.67 15.256 307.67 14.568C307.654 13.704 307.87 13.032 308.318 12.552C308.766 12.056 309.494 11.704 310.502 11.496C311.51 11.272 312.91 11.16 314.702 11.16H315.254V10.464C315.254 9.568 315.07 8.92 314.702 8.52C314.334 8.12 313.742 7.92 312.926 7.92C312.366 7.92 311.838 7.992 311.342 8.136C310.846 8.28 310.302 8.488 309.71 8.76C309.278 9 308.974 9.12 308.798 9.12C308.558 9.12 308.358 9.032 308.198 8.856C308.054 8.68 307.982 8.456 307.982 8.184C307.982 7.944 308.046 7.736 308.174 7.56C308.318 7.368 308.542 7.184 308.846 7.008C309.406 6.704 310.062 6.464 310.814 6.288C311.566 6.096 312.294 6 312.998 6ZM312.254 16.368C313.134 16.368 313.854 16.072 314.414 15.48C314.974 14.872 315.254 14.096 315.254 13.152V12.528H314.822C313.574 12.528 312.614 12.584 311.942 12.696C311.27 12.808 310.79 13 310.502 13.272C310.214 13.528 310.07 13.904 310.07 14.4C310.07 14.976 310.278 15.448 310.694 15.816C311.11 16.184 311.63 16.368 312.254 16.368ZM11.256 34.96C11.624 34.96 11.92 35.064 12.144 35.272C12.368 35.48 12.48 35.76 12.48 36.112V50.944C12.48 51.312 12.368 51.6 12.144 51.808C11.936 52.016 11.648 52.12 11.28 52.12C10.912 52.12 10.616 52.016 10.392 51.808C10.184 51.6 10.08 51.312 10.08 50.944V49.984C9.728 50.688 9.216 51.232 8.544 51.616C7.872 51.984 7.096 52.168 6.216 52.168C5.208 52.168 4.304 51.912 3.504 51.4C2.72 50.888 2.104 50.168 1.656 49.24C1.224 48.312 1.008 47.248 1.008 46.048C1.008 44.832 1.224 43.768 1.656 42.856C2.104 41.944 2.72 41.24 3.504 40.744C4.288 40.248 5.192 40 6.216 40C7.096 40 7.864 40.192 8.52 40.576C9.192 40.944 9.704 41.472 10.056 42.16V36.064C10.056 35.728 10.16 35.464 10.368 35.272C10.592 35.064 10.888 34.96 11.256 34.96ZM6.792 50.248C7.832 50.248 8.64 49.888 9.216 49.168C9.792 48.448 10.08 47.424 10.08 46.096C10.08 44.768 9.792 43.744 9.216 43.024C8.656 42.304 7.848 41.944 6.792 41.944C5.736 41.944 4.912 42.304 4.32 43.024C3.744 43.728 3.456 44.736 3.456 46.048C3.456 47.36 3.752 48.392 4.344 49.144C4.936 49.88 5.752 50.248 6.792 50.248ZM25.0277 49.048C25.2517 49.048 25.4357 49.136 25.5797 49.312C25.7237 49.488 25.7957 49.712 25.7957 49.984C25.7957 50.448 25.5077 50.84 24.9317 51.16C24.3717 51.48 23.7557 51.728 23.0837 51.904C22.4277 52.08 21.7957 52.168 21.1877 52.168C19.3317 52.168 17.8677 51.632 16.7957 50.56C15.7237 49.472 15.1877 47.992 15.1877 46.12C15.1877 44.92 15.4197 43.856 15.8837 42.928C16.3637 42 17.0277 41.28 17.8757 40.768C18.7397 40.256 19.7157 40 20.8037 40C22.3717 40 23.6117 40.504 24.5237 41.512C25.4357 42.52 25.8917 43.88 25.8917 45.592C25.8917 46.232 25.6037 46.552 25.0277 46.552H17.6117C17.7717 49.032 18.9637 50.272 21.1877 50.272C21.7797 50.272 22.2917 50.192 22.7237 50.032C23.1557 49.872 23.6117 49.664 24.0917 49.408C24.1397 49.376 24.2677 49.312 24.4757 49.216C24.6997 49.104 24.8837 49.048 25.0277 49.048ZM20.8517 41.776C19.9237 41.776 19.1797 42.072 18.6197 42.664C18.0597 43.256 17.7237 44.088 17.6117 45.16H23.8037C23.7557 44.072 23.4757 43.24 22.9637 42.664C22.4677 42.072 21.7637 41.776 20.8517 41.776ZM48.3309 40C50.9549 40 52.2669 41.576 52.2669 44.728V50.968C52.2669 51.336 52.1549 51.624 51.9309 51.832C51.7069 52.024 51.4109 52.12 51.0429 52.12C50.6909 52.12 50.4029 52.024 50.1789 51.832C49.9549 51.624 49.8429 51.336 49.8429 50.968V44.752C49.8429 43.776 49.6669 43.072 49.3149 42.64C48.9629 42.192 48.4109 41.968 47.6589 41.968C46.7789 41.968 46.0829 42.272 45.5709 42.88C45.0589 43.472 44.8029 44.288 44.8029 45.328V50.968C44.8029 51.336 44.6909 51.624 44.4669 51.832C44.2429 52.024 43.9469 52.12 43.5789 52.12C43.2269 52.12 42.9389 52.024 42.7149 51.832C42.4909 51.624 42.3789 51.336 42.3789 50.968V44.752C42.3789 43.776 42.2029 43.072 41.8509 42.64C41.4989 42.192 40.9469 41.968 40.1949 41.968C39.3149 41.968 38.6109 42.272 38.0829 42.88C37.5709 43.472 37.3149 44.288 37.3149 45.328V50.968C37.3149 51.336 37.2029 51.624 36.9789 51.832C36.7549 52.024 36.4669 52.12 36.1149 52.12C35.7629 52.12 35.4669 52.024 35.2269 51.832C35.0029 51.624 34.8909 51.336 34.8909 50.968V41.2C34.8909 40.848 35.0109 40.568 35.2509 40.36C35.4909 40.152 35.7789 40.048 36.1149 40.048C36.4509 40.048 36.7229 40.152 36.9309 40.36C37.1549 40.552 37.2669 40.824 37.2669 41.176V42.064C37.6189 41.392 38.1069 40.88 38.7309 40.528C39.3549 40.176 40.0749 40 40.8909 40C41.7869 40 42.5229 40.184 43.0989 40.552C43.6909 40.92 44.1309 41.488 44.4189 42.256C44.7709 41.568 45.2909 41.024 45.9789 40.624C46.6669 40.208 47.4509 40 48.3309 40ZM64.6583 40.048C65.0263 40.048 65.3143 40.152 65.5223 40.36C65.7463 40.568 65.8583 40.856 65.8583 41.224V50.992C65.8583 51.328 65.7463 51.6 65.5223 51.808C65.2983 52.016 65.0023 52.12 64.6343 52.12C64.2983 52.12 64.0263 52.024 63.8183 51.832C63.6103 51.624 63.5063 51.352 63.5063 51.016V50.104C63.1383 50.776 62.6263 51.288 61.9703 51.64C61.3303 51.992 60.6103 52.168 59.8103 52.168C56.9623 52.168 55.5383 50.6 55.5383 47.464V41.224C55.5383 40.856 55.6423 40.568 55.8503 40.36C56.0743 40.152 56.3783 40.048 56.7623 40.048C57.1303 40.048 57.4183 40.152 57.6263 40.36C57.8503 40.568 57.9623 40.856 57.9623 41.224V47.44C57.9623 48.384 58.1543 49.08 58.5383 49.528C58.9223 49.976 59.5143 50.2 60.3143 50.2C61.2583 50.2 62.0103 49.896 62.5703 49.288C63.1463 48.68 63.4343 47.872 63.4343 46.864V41.224C63.4343 40.872 63.5463 40.592 63.7703 40.384C63.9943 40.16 64.2903 40.048 64.6583 40.048ZM70.4743 52.12C70.1223 52.12 69.8263 52.024 69.5863 51.832C69.3623 51.64 69.2503 51.352 69.2503 50.968V41.224C69.2503 40.84 69.3623 40.552 69.5863 40.36C69.8263 40.152 70.1223 40.048 70.4743 40.048C70.8263 40.048 71.1143 40.152 71.3383 40.36C71.5623 40.552 71.6743 40.84 71.6743 41.224V50.968C71.6743 51.352 71.5623 51.64 71.3383 51.832C71.1143 52.024 70.8263 52.12 70.4743 52.12ZM70.4743 37.696C70.0103 37.696 69.6423 37.568 69.3703 37.312C69.0983 37.056 68.9623 36.72 68.9623 36.304C68.9623 35.888 69.0983 35.56 69.3703 35.32C69.6423 35.064 70.0103 34.936 70.4743 34.936C70.9223 34.936 71.2823 35.064 71.5543 35.32C71.8423 35.56 71.9863 35.888 71.9863 36.304C71.9863 36.72 71.8503 37.056 71.5783 37.312C71.3063 37.568 70.9383 37.696 70.4743 37.696ZM81.1269 50.272C81.4789 50.304 81.7269 50.4 81.8709 50.56C82.0309 50.704 82.1109 50.912 82.1109 51.184C82.1109 51.504 81.9829 51.752 81.7269 51.928C81.4869 52.088 81.1269 52.152 80.6469 52.12L79.9989 52.072C78.7029 51.976 77.7349 51.584 77.0949 50.896C76.4549 50.192 76.1349 49.16 76.1349 47.8V42.16H74.6949C73.9909 42.16 73.6389 41.848 73.6389 41.224C73.6389 40.936 73.7269 40.712 73.9029 40.552C74.0949 40.376 74.3589 40.288 74.6949 40.288H76.1349V37.816C76.1349 37.448 76.2389 37.16 76.4469 36.952C76.6709 36.744 76.9669 36.64 77.3349 36.64C77.7029 36.64 77.9989 36.744 78.2229 36.952C78.4469 37.16 78.5589 37.448 78.5589 37.816V40.288H80.9349C81.2709 40.288 81.5269 40.376 81.7029 40.552C81.8949 40.712 81.9909 40.936 81.9909 41.224C81.9909 41.528 81.8949 41.76 81.7029 41.92C81.5269 42.08 81.2709 42.16 80.9349 42.16H78.5589V47.968C78.5589 48.72 78.7109 49.272 79.0149 49.624C79.3349 49.976 79.8149 50.176 80.4549 50.224L81.1269 50.272ZM88.7719 40C90.3239 40 91.4759 40.392 92.2279 41.176C92.9959 41.96 93.3799 43.152 93.3799 44.752V50.968C93.3799 51.336 93.2759 51.624 93.0679 51.832C92.8599 52.024 92.5719 52.12 92.2039 52.12C91.8519 52.12 91.5719 52.016 91.3639 51.808C91.1559 51.6 91.0519 51.32 91.0519 50.968V50.08C90.7479 50.752 90.2919 51.272 89.6839 51.64C89.0919 51.992 88.3959 52.168 87.5959 52.168C86.8279 52.168 86.1239 52.016 85.4839 51.712C84.8599 51.392 84.3639 50.96 83.9959 50.416C83.6279 49.872 83.4439 49.256 83.4439 48.568C83.4279 47.704 83.6439 47.032 84.0919 46.552C84.5399 46.056 85.2679 45.704 86.2759 45.496C87.2839 45.272 88.6839 45.16 90.4759 45.16H91.0279V44.464C91.0279 43.568 90.8439 42.92 90.4759 42.52C90.1079 42.12 89.5159 41.92 88.6999 41.92C88.1399 41.92 87.6119 41.992 87.1159 42.136C86.6199 42.28 86.0759 42.488 85.4839 42.76C85.0519 43 84.7479 43.12 84.5719 43.12C84.3319 43.12 84.1319 43.032 83.9719 42.856C83.8279 42.68 83.7559 42.456 83.7559 42.184C83.7559 41.944 83.8199 41.736 83.9479 41.56C84.0919 41.368 84.3159 41.184 84.6199 41.008C85.1799 40.704 85.8359 40.464 86.5879 40.288C87.3399 40.096 88.0679 40 88.7719 40ZM88.0279 50.368C88.9079 50.368 89.6279 50.072 90.1879 49.48C90.7479 48.872 91.0279 48.096 91.0279 47.152V46.528H90.5959C89.3479 46.528 88.3879 46.584 87.7159 46.696C87.0439 46.808 86.5639 47 86.2759 47.272C85.9879 47.528 85.8439 47.904 85.8439 48.4C85.8439 48.976 86.0519 49.448 86.4679 49.816C86.8839 50.184 87.4039 50.368 88.0279 50.368ZM100.776 52.168C99.1436 52.168 97.8076 51.832 96.7676 51.16C96.4796 50.984 96.2716 50.8 96.1436 50.608C96.0316 50.416 95.9756 50.2 95.9756 49.96C95.9756 49.704 96.0476 49.488 96.1916 49.312C96.3356 49.136 96.5196 49.048 96.7436 49.048C96.9516 49.048 97.2796 49.176 97.7276 49.432C98.2076 49.688 98.6716 49.896 99.1196 50.056C99.5836 50.216 100.16 50.296 100.848 50.296C101.616 50.296 102.216 50.16 102.648 49.888C103.08 49.616 103.296 49.232 103.296 48.736C103.296 48.416 103.208 48.16 103.032 47.968C102.872 47.776 102.584 47.608 102.168 47.464C101.752 47.304 101.136 47.136 100.32 46.96C98.9116 46.656 97.8956 46.248 97.2716 45.736C96.6636 45.208 96.3596 44.496 96.3596 43.6C96.3596 42.912 96.5596 42.296 96.9596 41.752C97.3596 41.192 97.9116 40.76 98.6156 40.456C99.3196 40.152 100.12 40 101.016 40C101.656 40 102.28 40.088 102.888 40.264C103.496 40.424 104.032 40.664 104.496 40.984C105.024 41.336 105.288 41.744 105.288 42.208C105.288 42.464 105.208 42.68 105.048 42.856C104.904 43.032 104.728 43.12 104.52 43.12C104.376 43.12 104.232 43.088 104.088 43.024C103.944 42.96 103.752 42.856 103.512 42.712C103.08 42.456 102.672 42.256 102.288 42.112C101.92 41.968 101.456 41.896 100.896 41.896C100.224 41.896 99.6796 42.04 99.2636 42.328C98.8636 42.616 98.6636 43.008 98.6636 43.504C98.6636 43.952 98.8476 44.304 99.2156 44.56C99.5996 44.8 100.312 45.032 101.352 45.256C102.424 45.48 103.264 45.736 103.872 46.024C104.48 46.312 104.912 46.672 105.168 47.104C105.44 47.52 105.576 48.056 105.576 48.712C105.576 49.752 105.136 50.592 104.256 51.232C103.392 51.856 102.232 52.168 100.776 52.168ZM119.618 52.168C118.482 52.168 117.482 51.92 116.618 51.424C115.77 50.928 115.106 50.224 114.626 49.312C114.162 48.4 113.93 47.344 113.93 46.144C113.93 44.928 114.17 43.856 114.65 42.928C115.146 42 115.834 41.28 116.714 40.768C117.594 40.256 118.602 40 119.738 40C120.346 40 120.954 40.088 121.562 40.264C122.186 40.44 122.738 40.68 123.218 40.984C123.73 41.336 123.986 41.744 123.986 42.208C123.986 42.48 123.914 42.712 123.77 42.904C123.626 43.08 123.442 43.168 123.218 43.168C123.074 43.168 122.93 43.136 122.786 43.072C122.642 42.992 122.458 42.88 122.234 42.736C121.834 42.48 121.458 42.288 121.106 42.16C120.77 42.016 120.362 41.944 119.882 41.944C118.794 41.944 117.946 42.312 117.338 43.048C116.746 43.784 116.45 44.808 116.45 46.12C116.45 47.432 116.746 48.448 117.338 49.168C117.93 49.872 118.77 50.224 119.858 50.224C120.338 50.224 120.762 50.152 121.13 50.008C121.498 49.864 121.874 49.672 122.258 49.432C122.434 49.32 122.61 49.224 122.786 49.144C122.962 49.064 123.122 49.024 123.266 49.024C123.49 49.024 123.674 49.12 123.818 49.312C123.962 49.488 124.034 49.712 124.034 49.984C124.034 50.208 123.97 50.416 123.842 50.608C123.73 50.784 123.53 50.968 123.242 51.16C122.762 51.48 122.202 51.728 121.562 51.904C120.922 52.08 120.274 52.168 119.618 52.168ZM132.347 40.048C133.115 40 133.499 40.328 133.499 41.032C133.499 41.384 133.411 41.648 133.235 41.824C133.059 42 132.755 42.104 132.323 42.136L131.603 42.208C130.595 42.304 129.843 42.656 129.347 43.264C128.867 43.872 128.627 44.608 128.627 45.472V50.968C128.627 51.352 128.515 51.64 128.291 51.832C128.067 52.024 127.779 52.12 127.427 52.12C127.075 52.12 126.779 52.024 126.539 51.832C126.315 51.64 126.203 51.352 126.203 50.968V41.2C126.203 40.832 126.315 40.552 126.539 40.36C126.779 40.152 127.075 40.048 127.427 40.048C127.747 40.048 128.011 40.152 128.219 40.36C128.443 40.552 128.555 40.824 128.555 41.176V42.328C128.875 41.624 129.339 41.088 129.947 40.72C130.555 40.352 131.243 40.136 132.011 40.072L132.347 40.048ZM136.217 52.12C135.865 52.12 135.569 52.024 135.329 51.832C135.105 51.64 134.993 51.352 134.993 50.968V41.224C134.993 40.84 135.105 40.552 135.329 40.36C135.569 40.152 135.865 40.048 136.217 40.048C136.569 40.048 136.857 40.152 137.081 40.36C137.305 40.552 137.417 40.84 137.417 41.224V50.968C137.417 51.352 137.305 51.64 137.081 51.832C136.857 52.024 136.569 52.12 136.217 52.12ZM136.217 37.696C135.753 37.696 135.385 37.568 135.113 37.312C134.841 37.056 134.705 36.72 134.705 36.304C134.705 35.888 134.841 35.56 135.113 35.32C135.385 35.064 135.753 34.936 136.217 34.936C136.665 34.936 137.025 35.064 137.297 35.32C137.585 35.56 137.729 35.888 137.729 36.304C137.729 36.72 137.593 37.056 137.321 37.312C137.049 37.568 136.681 37.696 136.217 37.696ZM145.725 40C147.277 40 148.429 40.392 149.181 41.176C149.949 41.96 150.333 43.152 150.333 44.752V50.968C150.333 51.336 150.229 51.624 150.021 51.832C149.813 52.024 149.525 52.12 149.157 52.12C148.805 52.12 148.525 52.016 148.317 51.808C148.109 51.6 148.005 51.32 148.005 50.968V50.08C147.701 50.752 147.245 51.272 146.637 51.64C146.045 51.992 145.349 52.168 144.549 52.168C143.781 52.168 143.077 52.016 142.437 51.712C141.813 51.392 141.317 50.96 140.949 50.416C140.581 49.872 140.397 49.256 140.397 48.568C140.381 47.704 140.597 47.032 141.045 46.552C141.493 46.056 142.221 45.704 143.229 45.496C144.237 45.272 145.637 45.16 147.429 45.16H147.981V44.464C147.981 43.568 147.797 42.92 147.429 42.52C147.061 42.12 146.469 41.92 145.653 41.92C145.093 41.92 144.565 41.992 144.069 42.136C143.573 42.28 143.029 42.488 142.437 42.76C142.005 43 141.701 43.12 141.525 43.12C141.285 43.12 141.085 43.032 140.925 42.856C140.781 42.68 140.709 42.456 140.709 42.184C140.709 41.944 140.773 41.736 140.901 41.56C141.045 41.368 141.269 41.184 141.573 41.008C142.133 40.704 142.789 40.464 143.541 40.288C144.293 40.096 145.021 40 145.725 40ZM144.981 50.368C145.861 50.368 146.581 50.072 147.141 49.48C147.701 48.872 147.981 48.096 147.981 47.152V46.528H147.549C146.301 46.528 145.341 46.584 144.669 46.696C143.997 46.808 143.517 47 143.229 47.272C142.941 47.528 142.797 47.904 142.797 48.4C142.797 48.976 143.005 49.448 143.421 49.816C143.837 50.184 144.357 50.368 144.981 50.368ZM159.961 40C162.761 40 164.161 41.576 164.161 44.728V50.968C164.161 51.336 164.049 51.624 163.825 51.832C163.617 52.024 163.321 52.12 162.937 52.12C162.569 52.12 162.273 52.016 162.049 51.808C161.841 51.6 161.737 51.32 161.737 50.968V44.848C161.737 43.856 161.537 43.128 161.137 42.664C160.753 42.2 160.145 41.968 159.313 41.968C158.337 41.968 157.553 42.272 156.961 42.88C156.369 43.488 156.073 44.304 156.073 45.328V50.968C156.073 51.32 155.961 51.6 155.737 51.808C155.529 52.016 155.241 52.12 154.873 52.12C154.505 52.12 154.209 52.016 153.985 51.808C153.761 51.6 153.649 51.32 153.649 50.968V41.2C153.649 40.864 153.761 40.592 153.985 40.384C154.225 40.16 154.521 40.048 154.873 40.048C155.225 40.048 155.505 40.152 155.713 40.36C155.921 40.568 156.025 40.84 156.025 41.176V42.16C156.409 41.456 156.945 40.92 157.633 40.552C158.321 40.184 159.097 40 159.961 40ZM176.141 49.024C176.365 49.024 176.549 49.12 176.693 49.312C176.837 49.488 176.909 49.712 176.909 49.984C176.909 50.208 176.845 50.416 176.717 50.608C176.605 50.784 176.405 50.968 176.117 51.16C175.701 51.432 175.221 51.656 174.677 51.832C174.133 52.008 173.581 52.112 173.021 52.144L172.901 53.056C173.125 53.008 173.325 52.984 173.501 52.984C173.997 52.984 174.413 53.128 174.749 53.416C175.101 53.704 175.277 54.112 175.277 54.64C175.277 55.232 175.021 55.712 174.509 56.08C173.997 56.464 173.269 56.656 172.325 56.656C171.701 56.656 171.149 56.568 170.669 56.392C170.381 56.28 170.237 56.08 170.237 55.792C170.237 55.6 170.301 55.44 170.429 55.312C170.573 55.184 170.757 55.152 170.981 55.216C171.461 55.344 171.909 55.408 172.325 55.408C172.741 55.408 173.061 55.344 173.285 55.216C173.509 55.088 173.621 54.896 173.621 54.64C173.621 54.448 173.557 54.296 173.429 54.184C173.317 54.088 173.149 54.04 172.925 54.04C172.765 54.04 172.549 54.072 172.277 54.136C172.005 54.2 171.837 54.232 171.773 54.232C171.645 54.232 171.525 54.184 171.413 54.088C171.317 54.008 171.277 53.896 171.293 53.752L171.485 52.096C170.045 51.872 168.901 51.232 168.053 50.176C167.221 49.12 166.805 47.776 166.805 46.144C166.805 44.928 167.045 43.856 167.525 42.928C168.021 42 168.709 41.28 169.589 40.768C170.469 40.256 171.477 40 172.613 40C173.221 40 173.829 40.088 174.437 40.264C175.061 40.44 175.613 40.68 176.093 40.984C176.605 41.336 176.861 41.744 176.861 42.208C176.861 42.48 176.789 42.712 176.645 42.904C176.501 43.08 176.317 43.168 176.093 43.168C175.949 43.168 175.805 43.136 175.661 43.072C175.517 42.992 175.333 42.88 175.109 42.736C174.709 42.48 174.333 42.288 173.981 42.16C173.645 42.016 173.237 41.944 172.757 41.944C171.669 41.944 170.821 42.312 170.213 43.048C169.621 43.784 169.325 44.808 169.325 46.12C169.325 47.432 169.621 48.448 170.213 49.168C170.805 49.872 171.645 50.224 172.733 50.224C173.213 50.224 173.637 50.152 174.005 50.008C174.373 49.864 174.749 49.672 175.133 49.432C175.309 49.32 175.485 49.224 175.661 49.144C175.837 49.064 175.997 49.024 176.141 49.024ZM183.998 40C185.55 40 186.702 40.392 187.454 41.176C188.222 41.96 188.606 43.152 188.606 44.752V50.968C188.606 51.336 188.502 51.624 188.294 51.832C188.086 52.024 187.798 52.12 187.43 52.12C187.078 52.12 186.798 52.016 186.59 51.808C186.382 51.6 186.278 51.32 186.278 50.968V50.08C185.974 50.752 185.518 51.272 184.91 51.64C184.318 51.992 183.622 52.168 182.822 52.168C182.054 52.168 181.35 52.016 180.71 51.712C180.086 51.392 179.59 50.96 179.222 50.416C178.854 49.872 178.67 49.256 178.67 48.568C178.654 47.704 178.87 47.032 179.318 46.552C179.766 46.056 180.494 45.704 181.502 45.496C182.51 45.272 183.91 45.16 185.702 45.16H186.254V44.464C186.254 43.568 186.07 42.92 185.702 42.52C185.334 42.12 184.742 41.92 183.926 41.92C183.366 41.92 182.838 41.992 182.342 42.136C181.846 42.28 181.302 42.488 180.71 42.76C180.278 43 179.974 43.12 179.798 43.12C179.558 43.12 179.358 43.032 179.198 42.856C179.054 42.68 178.982 42.456 178.982 42.184C178.982 41.944 179.046 41.736 179.174 41.56C179.318 41.368 179.542 41.184 179.846 41.008C180.406 40.704 181.062 40.464 181.814 40.288C182.566 40.096 183.294 40 183.998 40ZM183.254 50.368C184.134 50.368 184.854 50.072 185.414 49.48C185.974 48.872 186.254 48.096 186.254 47.152V46.528H185.822C184.574 46.528 183.614 46.584 182.942 46.696C182.27 46.808 181.79 47 181.502 47.272C181.214 47.528 181.07 47.904 181.07 48.4C181.07 48.976 181.278 49.448 181.694 49.816C182.11 50.184 182.63 50.368 183.254 50.368ZM196.002 52.168C194.37 52.168 193.034 51.832 191.994 51.16C191.706 50.984 191.498 50.8 191.37 50.608C191.258 50.416 191.202 50.2 191.202 49.96C191.202 49.704 191.274 49.488 191.418 49.312C191.562 49.136 191.746 49.048 191.97 49.048C192.178 49.048 192.506 49.176 192.954 49.432C193.434 49.688 193.898 49.896 194.346 50.056C194.81 50.216 195.386 50.296 196.074 50.296C196.842 50.296 197.442 50.16 197.874 49.888C198.306 49.616 198.522 49.232 198.522 48.736C198.522 48.416 198.434 48.16 198.258 47.968C198.098 47.776 197.81 47.608 197.394 47.464C196.978 47.304 196.362 47.136 195.546 46.96C194.138 46.656 193.122 46.248 192.498 45.736C191.89 45.208 191.586 44.496 191.586 43.6C191.586 42.912 191.786 42.296 192.186 41.752C192.586 41.192 193.138 40.76 193.842 40.456C194.546 40.152 195.346 40 196.242 40C196.882 40 197.506 40.088 198.114 40.264C198.722 40.424 199.258 40.664 199.722 40.984C200.25 41.336 200.514 41.744 200.514 42.208C200.514 42.464 200.434 42.68 200.274 42.856C200.13 43.032 199.954 43.12 199.746 43.12C199.602 43.12 199.458 43.088 199.314 43.024C199.17 42.96 198.978 42.856 198.738 42.712C198.306 42.456 197.898 42.256 197.514 42.112C197.146 41.968 196.682 41.896 196.122 41.896C195.45 41.896 194.906 42.04 194.49 42.328C194.09 42.616 193.89 43.008 193.89 43.504C193.89 43.952 194.074 44.304 194.442 44.56C194.826 44.8 195.538 45.032 196.578 45.256C197.65 45.48 198.49 45.736 199.098 46.024C199.706 46.312 200.138 46.672 200.394 47.104C200.666 47.52 200.802 48.056 200.802 48.712C200.802 49.752 200.362 50.592 199.482 51.232C198.618 51.856 197.458 52.168 196.002 52.168ZM204.559 52.12C204.127 52.12 203.759 51.976 203.455 51.688C203.167 51.4 203.023 51.032 203.023 50.584C203.023 50.136 203.167 49.768 203.455 49.48C203.759 49.176 204.127 49.024 204.559 49.024C204.991 49.024 205.351 49.176 205.639 49.48C205.927 49.768 206.071 50.136 206.071 50.584C206.071 51.032 205.927 51.4 205.639 51.688C205.351 51.976 204.991 52.12 204.559 52.12Z" fill="white"/>
</svg>
